HIERARCHY
ROOT Hips
{
	OFFSET 0.000000 0.000000 0.000000
	CHANNELS 6 Xposition Yposition Zposition Zrotation Yrotation Xrotation 
	JOINT LeftUpLeg_virtual
	{
		OFFSET 0.000000 0.000000 0.000000
		CHANNELS 3 Zrotation Yrotation Xrotation
		JOINT LeftUpLeg
		{
			OFFSET 10.205400 -3.823500 0.155100
			CHANNELS 3 Zrotation Yrotation Xrotation
			JOINT LeftLeg
			{
				OFFSET 0.708757 -12.982077 0.567790
				CHANNELS 3 Zrotation Yrotation Xrotation
				JOINT LeftFoot
				{
					OFFSET -0.708756 -10.717838 -2.184338
					CHANNELS 3 Zrotation Yrotation Xrotation
					JOINT LeftToeBase
					{
						OFFSET 0.108149 -7.191104 7.560241
						CHANNELS 3 Zrotation Yrotation Xrotation
						End Site
						{
							OFFSET 0.000000 0.000000 0.000000
						}
					}
				}
			}
		}
	}
	JOINT RightUpLeg_virtual
	{
		OFFSET 0.000000 0.000000 0.000000
		CHANNELS 3 Zrotation Yrotation Xrotation
		JOINT RightUpLeg
		{
			OFFSET -10.205400 -3.823500 0.005500
			CHANNELS 3 Zrotation Yrotation Xrotation
			JOINT RightLeg
			{
				OFFSET -0.708756 -12.982134 0.610632
				CHANNELS 3 Zrotation Yrotation Xrotation
				JOINT RightFoot
				{
					OFFSET 0.708754 -10.717769 -1.945823
					CHANNELS 3 Zrotation Yrotation Xrotation
					JOINT RightToeBase
					{
						OFFSET -0.108140 -7.191069 7.372968
						CHANNELS 3 Zrotation Yrotation Xrotation
						End Site
						{
							OFFSET 0.000000 0.000000 0.000000
						}
					}
				}
			}
		}
	}
	JOINT Spine_virtual
	{
		OFFSET 0.000000 0.000000 0.000000
		CHANNELS 3 Zrotation Yrotation Xrotation
		JOINT Spine
		{
			OFFSET 0.000000 6.876099 0.125700
			CHANNELS 3 Zrotation Yrotation Xrotation
			JOINT Spine1
			{
				OFFSET 0.000000 8.022060 0.146608
				CHANNELS 3 Zrotation Yrotation Xrotation
				JOINT Spine2
				{
					OFFSET 0.000000 9.168068 0.167552
					CHANNELS 3 Zrotation Yrotation Xrotation
					JOINT Neck_virtual
					{
						OFFSET 0.000000 0.000000 0.000000
						CHANNELS 3 Zrotation Yrotation Xrotation
						JOINT Neck
						{
							OFFSET 0.000000 10.314075 0.188496
							CHANNELS 3 Zrotation Yrotation Xrotation
							JOINT Head
							{
								OFFSET 0.000000 7.643700 -2.377400
								CHANNELS 3 Zrotation Yrotation Xrotation
								End Site
								{
									OFFSET 0.000000 0.000000 0.000000
								}
							}
						}
					}
					JOINT LeftShoulder_virtual
					{
						OFFSET 0.000000 0.000000 0.000000
						CHANNELS 3 Zrotation Yrotation Xrotation
						JOINT LeftShoulder
						{
							OFFSET 4.392200 8.824978 0.174984
							CHANNELS 3 Zrotation Yrotation Xrotation
							JOINT LeftArm
							{
								OFFSET 8.771219 -2.981674 -0.026999
								CHANNELS 3 Zrotation Yrotation Xrotation
								JOINT LeftForeArm
								{
									OFFSET 8.512804 0.000000 -0.000000
									CHANNELS 3 Zrotation Yrotation Xrotation
									JOINT LeftHand
									{
										OFFSET 18.484802 0.000000 -0.000000
										CHANNELS 3 Zrotation Yrotation Xrotation
										End Site
										{
											OFFSET 0.000000 0.000000 0.000000
										}
									}
								}
							}
						}
					}
					JOINT RightShoulder_virtual
					{
						OFFSET 0.000000 0.000000 0.000000
						CHANNELS 3 Zrotation Yrotation Xrotation
						JOINT RightShoulder
						{
							OFFSET -4.392200 8.824993 0.141379
							CHANNELS 3 Zrotation Yrotation Xrotation
							JOINT RightArm
							{
								OFFSET -8.771282 -2.981682 -0.094208
								CHANNELS 3 Zrotation Yrotation Xrotation
								JOINT RightForeArm
								{
									OFFSET -8.494598 0.000000 0.000000
									CHANNELS 3 Zrotation Yrotation Xrotation
									JOINT RightHand
									{
										OFFSET -18.483803 0.000000 0.000001
										CHANNELS 3 Zrotation Yrotation Xrotation
										End Site
										{
											OFFSET 0.000000 0.000000 0.000000
										}
									}
								}
							}
						}
					}
				}
			}
		}
	}
}
MOTION
Frames: 9
Frame Time: 0.033333
-3.875417 36.121113 -37.562447 -179.991344 4.720373 -179.937604 -2.838272 -3.051956 8.577870 -11.575001 2.064045 -17.433315 20.423608 7.420657 22.555469 -1.876524 -1.797576 7.651125 0.000000 0.000000 0.000000 0.734310 -0.721511 7.804036 -2.688839 3.840763 -11.960476 -9.749915 1.910639 14.294438 12.691239 3.387038 10.743965 0.000000 0.000000 0.000000 1.125668 0.799971 -4.657818 -4.934187 2.677439 -6.559216 0.281817 -3.742854 5.170842 -0.013017 -0.012107 0.005005 0.196011 -2.397130 7.596010 -1.103496 0.663519 14.930377 0.000000 0.000000 0.000000 1.809662 -1.577433 4.461976 -6.412042 3.302983 -6.657534 -0.580525 14.074066 -43.565173 -1.800801 -48.942991 -3.455550 0.000000 0.000000 0.000000 -1.872519 -0.805663 4.079795 21.255597 -4.244953 -12.365276 10.884871 -18.118513 -43.750387 -0.599663 31.504633 4.131742 0.000000 0.000000 0.000000 
-3.871610 36.108459 -37.634270 -179.925788 4.695840 -179.848689 -2.849346 -3.267977 8.698825 -11.248593 2.077552 -17.322435 20.756841 7.190924 22.518290 -1.450401 -1.418087 7.760552 0.000000 0.000000 0.000000 0.814063 -0.727583 7.850283 -2.878657 4.238258 -11.949439 -9.602986 2.359238 14.403843 13.139699 3.720734 10.882690 0.000000 0.000000 0.000000 1.163518 0.799204 -4.693672 -4.898475 2.695874 -6.555152 0.292112 -3.714914 5.156191 -0.009123 0.010695 -0.008014 0.182991 -2.387842 7.656140 -1.128226 0.631689 15.012209 0.000000 0.000000 0.000000 1.823875 -1.569142 4.526151 -6.465265 3.344385 -6.812480 -0.877165 14.298815 -43.315639 -1.877402 -48.951266 -3.477846 0.000000 0.000000 0.000000 -1.905246 -0.823403 4.106293 21.373547 -4.300361 -12.331938 11.004417 -18.288684 -43.379563 -0.465995 31.512546 4.224441 0.000000 0.000000 0.000000 
-3.868749 36.104027 -37.708805 -179.890927 4.559358 -179.849768 -2.830151 -3.266438 8.768706 -11.204489 2.151693 -17.354993 20.692408 7.107192 22.707437 -1.486627 -1.459379 7.601023 0.000000 0.000000 0.000000 0.874253 -0.669214 7.912306 -2.884404 4.079786 -11.909614 -9.571685 2.337256 14.608557 13.112631 3.726142 10.640874 0.000000 0.000000 0.000000 1.188394 0.815463 -4.664520 -4.852053 2.663007 -6.544729 0.296336 -3.751792 5.191191 0.013675 -0.017066 -0.009039 0.137624 -2.340799 7.719336 -1.160634 0.601937 15.102477 0.000000 0.000000 0.000000 1.786737 -1.497045 4.546437 -6.612238 3.471656 -6.746214 -1.568831 14.767704 -43.155587 -1.739068 -49.163838 -3.447702 0.000000 0.000000 0.000000 -1.952229 -0.773944 4.171193 21.453310 -4.360709 -12.385959 11.399295 -18.401370 -43.001614 -0.370340 31.598822 4.239112 0.000000 0.000000 0.000000 
-3.863932 36.096516 -37.777195 -179.883591 4.292364 -179.893386 -2.847534 -3.327771 8.852825 -11.128471 2.168824 -17.397031 20.617367 7.003225 22.878893 -1.528355 -1.516316 7.449108 0.000000 0.000000 0.000000 0.897817 -0.714124 8.061924 -2.860086 3.834893 -11.836278 -9.548819 2.289759 14.826058 13.054479 3.720207 10.402860 0.000000 0.000000 0.000000 1.190724 0.837675 -4.610888 -4.805171 2.681651 -6.560043 0.291267 -3.700332 5.246132 0.014343 0.014547 -0.003138 0.109599 -2.335288 7.782204 -1.236505 0.528653 15.269499 0.000000 0.000000 0.000000 1.761362 -1.582167 4.637859 -6.819988 3.415628 -6.687690 -2.534234 15.273063 -43.152657 -1.541822 -49.462789 -3.594202 0.000000 0.000000 0.000000 -1.975426 -0.842482 4.129427 21.529590 -4.601423 -12.320510 11.852593 -18.573342 -42.734605 -0.238943 31.736389 4.234672 0.000000 0.000000 0.000000 
-3.860937 36.086857 -37.838207 -179.846613 4.229682 -179.875723 -2.840676 -3.193554 8.944781 -11.063902 2.237051 -17.514687 20.498132 6.941535 23.018875 -1.597256 -1.606028 7.269301 0.000000 0.000000 0.000000 0.944967 -0.562973 8.186800 -2.808097 3.476209 -11.814479 -9.556655 2.320088 14.987655 13.040690 3.735967 10.210273 0.000000 0.000000 0.000000 1.233413 0.879012 -4.575421 -4.709422 2.677470 -6.617772 0.305208 -3.673738 5.286858 -0.013683 0.027214 0.015752 0.092244 -2.315536 7.824689 -1.290571 0.448672 15.425619 0.000000 0.000000 0.000000 1.755810 -1.534567 4.660913 -7.069295 3.445209 -6.719641 -3.414960 15.755875 -43.171228 -1.441065 -49.701156 -3.628394 0.000000 0.000000 0.000000 -1.982735 -0.821844 4.183344 21.685840 -4.800899 -12.395745 12.291291 -18.585759 -42.686398 -0.117875 31.656284 4.183366 0.000000 0.000000 0.000000 
-3.855332 36.078941 -37.888016 -179.967384 4.061496 -179.807981 -2.953108 -3.223493 9.035142 -11.007774 2.199709 -17.630769 20.414367 7.030634 23.096551 -1.623261 -1.670345 7.171968 0.000000 0.000000 0.000000 0.819042 -0.512542 8.280494 -2.806715 3.278155 -11.859485 -9.492193 2.288033 15.094581 12.995000 3.727320 10.008351 0.000000 0.000000 0.000000 1.161111 0.908839 -4.573778 -4.724909 2.634116 -6.737232 0.284585 -3.676167 5.281332 0.004919 0.008399 -0.008995 0.103229 -2.286052 7.927022 -1.322486 0.362752 15.576762 0.000000 0.000000 0.000000 1.805498 -1.463615 4.744211 -7.276938 3.408018 -6.802504 -4.246012 16.025007 -43.149078 -1.258315 -49.872371 -3.744163 0.000000 0.000000 0.000000 -1.943417 -0.771936 4.327053 21.766573 -4.941331 -12.433070 12.754825 -18.646302 -42.966330 0.061954 31.538692 4.175182 0.000000 0.000000 0.000000 
-3.841880 36.073856 -37.922028 -179.840179 3.913860 -179.859085 -2.840793 -3.233235 9.145972 -10.931881 2.234725 -17.711582 20.312684 6.929752 23.194172 -1.633921 -1.723375 7.072317 0.000000 0.000000 0.000000 0.974894 -0.569259 8.435887 -2.810512 3.141525 -11.813756 -9.401245 2.237057 15.120432 12.941846 3.713360 9.908211 0.000000 0.000000 0.000000 1.274560 0.860240 -4.441441 -4.625620 2.598103 -6.806001 0.328520 -3.638876 5.327429 -0.022839 0.003017 -0.004926 0.107547 -2.230400 7.979253 -1.315155 0.231634 15.729494 0.000000 0.000000 0.000000 1.792021 -1.421876 4.785002 -7.511834 3.304235 -6.630573 -5.003307 16.184215 -43.307559 -1.001338 -49.759058 -3.930743 0.000000 0.000000 0.000000 -1.912562 -0.686921 4.348350 21.911189 -5.106956 -12.293822 13.128405 -18.679577 -43.643078 0.258880 31.199307 4.100096 0.000000 0.000000 0.000000 
-3.821350 36.072739 -37.939293 -179.890135 3.804975 -179.869630 -2.850835 -3.305215 9.251158 -10.858403 2.161283 -17.768303 20.254040 6.963029 23.190280 -1.591953 -1.729115 7.055644 0.000000 0.000000 0.000000 0.904106 -0.650768 8.524171 -2.815174 3.045269 -11.825860 -9.273270 2.157957 15.082811 12.897268 3.696231 9.831004 0.000000 0.000000 0.000000 1.270127 0.820676 -4.318917 -4.642830 2.549213 -6.875634 0.353041 -3.592380 5.372547 0.005342 -0.001138 0.004599 0.149971 -2.175273 8.061370 -1.273114 0.081570 15.875566 0.000000 0.000000 0.000000 1.839541 -1.357860 4.865290 -7.685757 3.123943 -6.577889 -5.630909 16.114240 -43.237252 -0.826389 -49.566895 -4.008929 0.000000 0.000000 0.000000 -1.881045 -0.648322 4.455930 21.992289 -5.252197 -12.376063 13.395150 -18.715224 -44.181840 0.451849 30.921243 4.071997 0.000000 0.000000 0.000000 
-3.798109 36.077614 -37.944241 -179.955554 3.619267 -179.825671 -2.946890 -3.505615 9.316581 -10.771723 2.008489 -17.807456 20.224441 6.988761 23.142573 -1.532642 -1.717235 7.075216 0.000000 0.000000 0.000000 0.811509 -0.824193 8.550293 -2.797847 3.066868 -11.880818 -9.115109 2.025020 14.900105 12.830362 3.671584 9.869984 0.000000 0.000000 0.000000 1.245940 0.778558 -4.241115 -4.692486 2.503239 -6.963789 0.350856 -3.533882 5.422576 -0.048907 0.000624 0.006190 0.223691 -2.168204 8.188631 -1.249545 -0.144272 15.987989 0.000000 0.000000 0.000000 1.952902 -1.301356 5.037740 -7.827646 2.867281 -6.817904 -6.193344 15.934910 -42.998459 -0.805948 -49.356129 -3.914858 0.000000 0.000000 0.000000 -1.783323 -0.621842 4.568191 22.053023 -5.430760 -12.237570 13.650581 -18.724359 -44.877850 0.651726 30.751031 4.049293 0.000000 0.000000 0.000000 
